{
  "asset": {
    "version": "2.0",
    "generator": "RenderLab S0.4 fallback"
  },
  "scene": 0,
  "scenes": [
    {
      "name": "FallbackBoxes",
      "nodes": [
        0,
        1,
        2
      ]
    }
  ],
  "nodes": [
    {
      "name": "Ground",
      "mesh": 0
    },
    {
      "name": "DielectricBox",
      "mesh": 1
    },
    {
      "name": "MetalBox",
      "mesh": 2
    }
  ],
  "meshes": [
    {
      "name": "Ground",
      "primitives": [
        {
          "attributes": {
            "POSITION": 0,
            "NORMAL": 1
          },
          "indices": 2,
          "material": 0
        }
      ]
    },
    {
      "name": "DielectricBox",
      "primitives": [
        {
          "attributes": {
            "POSITION": 3,
            "NORMAL": 4
          },
          "indices": 5,
          "material": 1
        }
      ]
    },
    {
      "name": "MetalBox",
      "primitives": [
        {
          "attributes": {
            "POSITION": 6,
            "NORMAL": 7
          },
          "indices": 8,
          "material": 2
        }
      ]
    }
  ],
  "materials": [
    {
      "name": "GroundDielectric",
      "pbrMetallicRoughness": {
        "baseColorFactor": [
          0.45,
          0.45,
          0.47,
          1.0
        ],
        "metallicFactor": 0.0,
        "roughnessFactor": 0.9
      }
    },
    {
      "name": "BlueDielectric",
      "pbrMetallicRoughness": {
        "baseColorFactor": [
          0.18,
          0.32,
          0.72,
          1.0
        ],
        "metallicFactor": 0.0,
        "roughnessFactor": 0.75
      }
    },
    {
      "name": "GoldMetal",
      "pbrMetallicRoughness": {
        "baseColorFactor": [
          1.0,
          0.766,
          0.336,
          1.0
        ],
        "metallicFactor": 1.0,
        "roughnessFactor": 0.2
      }
    }
  ],
  "buffers": [
    {
      "uri": "boxes.bin",
      "byteLength": 1944
    }
  ],
  "bufferViews": [
    {
      "buffer": 0,
      "byteOffset": 0,
      "byteLength": 864,
      "target": 34962
    },
    {
      "buffer": 0,
      "byteOffset": 864,
      "byteLength": 864,
      "target": 34962
    },
    {
      "buffer": 0,
      "byteOffset": 1728,
      "byteLength": 216,
      "target": 34963
    }
  ],
  "accessors": [
    {
      "bufferView": 0,
      "byteOffset": 0,
      "componentType": 5126,
      "count": 24,
      "type": "VEC3",
      "min": [
        -3.0,
        -0.1,
        -3.0
      ],
      "max": [
        3.0,
        0.0,
        3.0
      ]
    },
    {
      "bufferView": 1,
      "byteOffset": 0,
      "componentType": 5126,
      "count": 24,
      "type": "VEC3"
    },
    {
      "bufferView": 2,
      "byteOffset": 0,
      "componentType": 5123,
      "count": 36,
      "type": "SCALAR"
    },
    {
      "bufferView": 0,
      "byteOffset": 288,
      "componentType": 5126,
      "count": 24,
      "type": "VEC3",
      "min": [
        -1.7,
        0.0,
        -0.5
      ],
      "max": [
        -0.7,
        1.0,
        0.5
      ]
    },
    {
      "bufferView": 1,
      "byteOffset": 288,
      "componentType": 5126,
      "count": 24,
      "type": "VEC3"
    },
    {
      "bufferView": 2,
      "byteOffset": 72,
      "componentType": 5123,
      "count": 36,
      "type": "SCALAR"
    },
    {
      "bufferView": 0,
      "byteOffset": 576,
      "componentType": 5126,
      "count": 24,
      "type": "VEC3",
      "min": [
        0.7,
        0.0,
        -0.5
      ],
      "max": [
        1.7,
        1.0,
        0.5
      ]
    },
    {
      "bufferView": 1,
      "byteOffset": 576,
      "componentType": 5126,
      "count": 24,
      "type": "VEC3"
    },
    {
      "bufferView": 2,
      "byteOffset": 144,
      "componentType": 5123,
      "count": 36,
      "type": "SCALAR"
    }
  ]
}
